# xmcd
#
# Track frame offsets: 
#        150
#        6450
#        29775
#        49688
#        65813
#        91163
#        108975
#        136688
#        162600
#        179475
#        199312
#        231975
#        253425
#
# Disc length: 3611 seconds
#
# Revision: 0
# Processed by: cddbd v1.5.2PL0 Copyright (c) Steve Scherf et al.
# Submitted via: ExactAudioCopyFreeDBPlugin 1.0
#
DISCID=c50e190d
DTITLE=Thornetta Davis - Honest Woman
DYEAR=2016
DGENRE=Blues
TTITLE0=When My Sister Sings The Blues
TTITLE1=I Gotta Sing The Blues
TTITLE2=That Don't Appease me
TTITLE3=Set Me Free
TTITLE4=Am I Just A Shadow
TTITLE5=I Need A Whoile Lotta Lovin To Satisfy Me
TTITLE6=I'd Rather Be Alone
TTITLE7=I Believe (Everything Gonna Be Alright)
TTITLE8=Sister Friends Indeed
TTITLE9=Get Up And Dance Your Blues Away
TTITLE10=Can We Do It Again
TTITLE11=Honest Woman
TTITLE12=Feels Like Religion
EXTD=
EXTT0=
EXTT1=
EXTT2=
EXTT3=
EXTT4=
EXTT5=
EXTT6=
EXTT7=
EXTT8=
EXTT9=
EXTT10=
EXTT11=
EXTT12=
PLAYORDER=
